<svg width="265" height="76" viewBox="0 0 265 76" fill="none" xmlns="http://www.w3.org/2000/svg">
<rect width="265" height="76" fill="#3E3E3E"/>
<g clip-path="url(#clip0_0_1)">
<rect width="1440" height="6963" transform="translate(-138 -6504)" fill="#FAFAF9"/>
<rect x="-138" y="-58" width="1440" height="378" fill="url(#paint0_linear_0_1)"/>
<rect width="265" height="76" rx="10" fill="#F6D799"/>
<path d="M71.842 33.9619V44H69.5876V35.7803H66.7487L66.5632 39.2778C66.4457 40.9601 66.121 42.1693 65.5891 42.9053C65.0633 43.6351 64.2562 44 63.1677 44H62.4719L62.4626 42.126L62.9265 42.0796C63.4213 42.0116 63.78 41.7116 64.0026 41.1797C64.2315 40.6416 64.3768 39.6644 64.4387 38.248L64.6242 33.9619H71.842ZM85.2181 38.8882C85.2181 37.9048 85.4129 37.0203 85.8025 36.2349C86.1922 35.4432 86.7396 34.8371 87.4446 34.4165C88.1497 33.9897 88.9599 33.7764 89.8753 33.7764C91.2298 33.7764 92.3276 34.2124 93.1688 35.0845C94.0161 35.9565 94.4738 37.1131 94.5418 38.5542L94.5511 39.083C94.5511 40.0726 94.3593 40.957 93.9759 41.7363C93.5986 42.5156 93.0543 43.1187 92.3431 43.5454C91.638 43.9722 90.8216 44.1855 89.8939 44.1855C88.4775 44.1855 87.3426 43.7155 86.4891 42.7754C85.6417 41.8291 85.2181 40.5705 85.2181 38.9995V38.8882ZM87.4725 39.083C87.4725 40.1159 87.6858 40.9261 88.1126 41.5137C88.5394 42.0951 89.1331 42.3857 89.8939 42.3857C90.6546 42.3857 91.2453 42.0889 91.6658 41.4951C92.0926 40.9014 92.306 40.0324 92.306 38.8882C92.306 37.8739 92.0864 37.0698 91.6473 36.4761C91.2143 35.8823 90.6237 35.5854 89.8753 35.5854C89.1393 35.5854 88.5548 35.8792 88.1219 36.4668C87.6889 37.0482 87.4725 37.9202 87.4725 39.083ZM114.542 35.7803H110.182V44H107.936V33.9619H114.542V35.7803ZM126.61 38.8882C126.61 37.9048 126.805 37.0203 127.194 36.2349C127.584 35.4432 128.131 34.8371 128.836 34.4165C129.542 33.9897 130.352 33.7764 131.267 33.7764C132.622 33.7764 133.719 34.2124 134.561 35.0845C135.408 35.9565 135.866 37.1131 135.934 38.5542L135.943 39.083C135.943 40.0726 135.751 40.957 135.368 41.7363C134.99 42.5156 134.446 43.1187 133.735 43.5454C133.03 43.9722 132.213 44.1855 131.286 44.1855C129.869 44.1855 128.734 43.7155 127.881 42.7754C127.034 41.8291 126.61 40.5705 126.61 38.9995V38.8882ZM128.864 39.083C128.864 40.1159 129.078 40.9261 129.504 41.5137C129.931 42.0951 130.525 42.3857 131.286 42.3857C132.046 42.3857 132.637 42.0889 133.058 41.4951C133.484 40.9014 133.698 40.0324 133.698 38.8882C133.698 37.8739 133.478 37.0698 133.039 36.4761C132.606 35.8823 132.015 35.5854 131.267 35.5854C130.531 35.5854 129.947 35.8792 129.514 36.4668C129.081 37.0482 128.864 37.9202 128.864 39.083ZM156.871 35.7524H153.614V44H151.36V35.7524H148.141V33.9619H156.871V35.7524ZM176.045 33.9619H178.29V44H176.045V37.3018L172.112 44H169.866V33.9619H172.112V40.6602L176.045 33.9619ZM200.6 44H198.346V35.7803H194.431V44H192.177V33.9619H200.6V44Z" fill="white"/>
</g>
<defs>
<linearGradient id="paint0_linear_0_1" x1="348" y1="-58" x2="816.231" y2="21.4252" gradientUnits="userSpaceOnUse">
<stop stop-color="#F2B236"/>
<stop offset="1" stop-color="#FF9C1A"/>
</linearGradient>
<clipPath id="clip0_0_1">
<rect width="1440" height="6963" fill="white" transform="translate(-138 -6504)"/>
</clipPath>
</defs>
</svg>
