<svg width="46" height="46" viewBox="0 0 46 46" fill="none" xmlns="http://www.w3.org/2000/svg">
<g filter="url(#filter0_d_3709_472)">
<rect x="4" y="0.857422" width="37.1428" height="37.1428" rx="12" fill="#90C1BF"/>
<path d="M22.5718 12.5716C21.2156 12.5716 19.8899 12.9738 18.7622 13.7273C17.6346 14.4807 16.7557 15.5517 16.2367 16.8047C15.7177 18.0576 15.5819 19.4364 15.8465 20.7665C16.111 22.0967 16.7641 23.3185 17.7231 24.2775C18.6821 25.2365 19.9039 25.8896 21.2341 26.1541C22.5642 26.4187 23.943 26.2829 25.1959 25.7639C26.4489 25.2449 27.5199 24.366 28.2733 23.2384C29.0268 22.1107 29.429 20.785 29.429 19.4288C29.4269 17.6108 28.7038 15.8678 27.4183 14.5823C26.1328 13.2968 24.3898 12.5737 22.5718 12.5716ZM22.5718 24.0002C21.6677 24.0002 20.7839 23.7321 20.0321 23.2298C19.2803 22.7275 18.6944 22.0135 18.3484 21.1782C18.0024 20.3429 17.9119 19.4237 18.0882 18.5369C18.2646 17.6502 18.7 16.8356 19.3393 16.1963C19.9787 15.557 20.7932 15.1216 21.68 14.9452C22.5668 14.7688 23.4859 14.8593 24.3212 15.2053C25.1566 15.5513 25.8705 16.1373 26.3728 16.889C26.8751 17.6408 27.1433 18.5246 27.1433 19.4288C27.1419 20.6408 26.6598 21.8027 25.8028 22.6597C24.9458 23.5168 23.7838 23.9988 22.5718 24.0002ZM28.8575 5.14307H16.2861C14.1651 5.14549 12.1317 5.98912 10.6319 7.48888C9.13218 8.98865 8.28855 11.0221 8.28613 13.1431V25.7145C8.28855 27.8355 9.13218 29.8689 10.6319 31.3686C12.1317 32.8684 14.1651 33.712 16.2861 33.7145H28.8575C30.9785 33.712 33.0119 32.8684 34.5117 31.3686C36.0115 29.8689 36.8551 27.8355 36.8575 25.7145V13.1431C36.8551 11.0221 36.0115 8.98865 34.5117 7.48888C33.0119 5.98912 30.9785 5.14549 28.8575 5.14307ZM34.5718 25.7145C34.5701 27.2295 33.9675 28.6819 32.8963 29.7532C31.825 30.8245 30.3725 31.4271 28.8575 31.4288H16.2861C14.7711 31.4271 13.3187 30.8245 12.2474 29.7532C11.1761 28.6819 10.5735 27.2295 10.5718 25.7145V13.1431C10.5735 11.6281 11.1761 10.1756 12.2474 9.10433C13.3187 8.03306 14.7711 7.43048 16.2861 7.42878H28.8575C30.3725 7.43048 31.825 8.03306 32.8963 9.10433C33.9675 10.1756 34.5701 11.6281 34.5718 13.1431V25.7145ZM31.7147 12.0002C31.7147 12.3393 31.6141 12.6707 31.4258 12.9526C31.2374 13.2345 30.9697 13.4542 30.6564 13.584C30.3432 13.7137 29.9985 13.7477 29.666 13.6815C29.3334 13.6154 29.028 13.4521 28.7882 13.2124C28.5485 12.9726 28.3852 12.6672 28.3191 12.3346C28.2529 12.0021 28.2869 11.6574 28.4166 11.3442C28.5464 11.0309 28.7661 10.7632 29.048 10.5748C29.3299 10.3865 29.6613 10.2859 30.0004 10.2859C30.4551 10.2859 30.8911 10.4665 31.2126 10.788C31.5341 11.1095 31.7147 11.5455 31.7147 12.0002Z" fill="white"/>
</g>
<defs>
<filter id="filter0_d_3709_472" x="0" y="0.857422" width="45.1426" height="45.1428" filterUnits="userSpaceOnUse" color-interpolation-filters="sRGB">
<feFlood flood-opacity="0" result="BackgroundImageFix"/>
<feColorMatrix in="SourceAlpha" type="matrix" values="0 0 0 0 0 0 0 0 0 0 0 0 0 0 0 0 0 0 127 0" result="hardAlpha"/>
<feOffset dy="4"/>
<feGaussianBlur stdDeviation="2"/>
<feColorMatrix type="matrix" values="0 0 0 0 0 0 0 0 0 0 0 0 0 0 0 0 0 0 0.17 0"/>
<feBlend mode="normal" in2="BackgroundImageFix" result="effect1_dropShadow_3709_472"/>
<feBlend mode="normal" in="SourceGraphic" in2="effect1_dropShadow_3709_472" result="shape"/>
</filter>
</defs>
</svg>
