<svg width="32" height="32" viewBox="0 0 32 32" fill="none" xmlns="http://www.w3.org/2000/svg">
<path d="M21.8738 17.1239C23.4261 15.9026 24.5591 14.2279 25.1153 12.3327C25.6714 10.4374 25.623 8.416 24.9768 6.54957C24.3306 4.68314 23.1187 3.06454 21.5097 1.91894C19.9008 0.773338 17.9748 0.157715 15.9996 0.157715C14.0245 0.157715 12.0985 0.773338 10.4895 1.91894C8.88056 3.06454 7.66867 4.68314 7.02247 6.54957C6.37626 8.416 6.32786 10.4374 6.884 12.3327C7.44014 14.2279 8.57317 15.9026 10.1255 17.1239C7.46559 18.1896 5.14475 19.9571 3.41038 22.238C1.676 24.5188 0.593103 27.2277 0.277129 30.0756C0.254257 30.2835 0.272563 30.4939 0.331002 30.6948C0.389441 30.8956 0.486869 31.083 0.617722 31.2462C0.881992 31.5758 1.26637 31.7869 1.6863 31.8331C2.10622 31.8793 2.5273 31.7568 2.85689 31.4925C3.18649 31.2282 3.3976 30.8438 3.4438 30.4239C3.79147 27.3288 5.2673 24.4703 7.58931 22.3945C9.91132 20.3187 12.9167 19.1712 16.0313 19.1712C19.1459 19.1712 22.1513 20.3187 24.4733 22.3945C26.7953 24.4703 28.2711 27.3288 28.6188 30.4239C28.6618 30.813 28.8475 31.1723 29.1399 31.4325C29.4323 31.6928 29.8107 31.8355 30.2021 31.8331H30.3763C30.7913 31.7853 31.1707 31.5755 31.4317 31.2492C31.6927 30.923 31.8141 30.5068 31.7696 30.0914C31.4522 27.2354 30.3634 24.5196 28.6201 22.2352C26.8769 19.9508 24.5447 18.1839 21.8738 17.1239ZM15.9996 15.9998C14.747 15.9998 13.5225 15.6283 12.481 14.9324C11.4395 14.2365 10.6277 13.2473 10.1484 12.0901C9.66904 10.9328 9.54362 9.65939 9.78799 8.43085C10.0324 7.2023 10.6356 6.07381 11.5213 5.18807C12.407 4.30234 13.5355 3.69915 14.7641 3.45478C15.9926 3.2104 17.266 3.33582 18.4233 3.81518C19.5806 4.29453 20.5697 5.10629 21.2656 6.14781C21.9615 7.18932 22.333 8.4138 22.333 9.66642C22.333 11.3461 21.6657 12.957 20.478 14.1448C19.2902 15.3325 17.6793 15.9998 15.9996 15.9998Z" fill="#F2B236"/>
</svg>
