<svg width="25" height="24" viewBox="0 0 25 24" fill="none" xmlns="http://www.w3.org/2000/svg">
<path d="M24.2997 21.9767L19.8504 17.56C21.5775 15.4049 22.4139 12.6695 22.1876 9.91628C21.9613 7.16302 20.6895 4.60118 18.6337 2.75751C16.578 0.913839 13.8945 -0.0715191 11.1351 0.00404582C8.37564 0.0796108 5.75003 1.21035 3.79809 3.16377C1.84615 5.11719 0.716269 7.74481 0.640762 10.5063C0.565254 13.2678 1.54986 15.9534 3.39213 18.0107C5.2344 20.068 7.79431 21.3407 10.5455 21.5672C13.2966 21.7937 16.0299 20.9567 18.1834 19.2283L22.5967 23.645C22.7082 23.7575 22.8409 23.8468 22.987 23.9077C23.1332 23.9686 23.2899 24 23.4482 24C23.6066 24 23.7633 23.9686 23.9095 23.9077C24.0556 23.8468 24.1882 23.7575 24.2997 23.645C24.5159 23.4212 24.6367 23.1221 24.6367 22.8108C24.6367 22.4996 24.5159 22.2005 24.2997 21.9767ZM11.4554 19.2283C9.79499 19.2283 8.1719 18.7355 6.79135 17.8124C5.4108 16.8892 4.33479 15.5771 3.69939 14.0419C3.06399 12.5068 2.89774 10.8175 3.22167 9.18784C3.54559 7.55813 4.34514 6.06115 5.5192 4.88619C6.69326 3.71124 8.18911 2.91108 9.81758 2.58691C11.4461 2.26274 13.134 2.42912 14.668 3.065C16.202 3.70088 17.5131 4.77771 18.4356 6.15931C19.358 7.54091 19.8504 9.16523 19.8504 10.8269C19.8504 13.0551 18.9659 15.192 17.3915 16.7675C15.8172 18.3431 13.6819 19.2283 11.4554 19.2283Z" fill="#A5AAAF"/>
</svg>
