<svg width="46" height="46" viewBox="0 0 46 46" fill="none" xmlns="http://www.w3.org/2000/svg">
<g filter="url(#filter0_d_3709_475)">
<rect x="4.57129" y="0.857422" width="37.1427" height="37.1428" rx="12" fill="#90C1BF"/>
</g>
<g clip-path="url(#clip0_3709_475)">
<path d="M22.4269 5.86182C20.1341 5.8895 15.2046 6.26629 12.4475 8.79575C10.3966 10.8279 9.6805 13.8324 9.59658 17.5475C9.52693 21.2493 9.443 28.2011 16.1439 30.0939V32.977C16.1439 32.977 16.1019 34.1305 16.8644 34.3671C17.8037 34.6645 18.3385 33.777 19.2314 32.8234L20.8966 30.9404C25.4814 31.3216 28.993 30.443 29.3974 30.3127C30.3278 30.0154 35.568 29.3457 36.4242 22.3931C37.3028 15.2127 35.9965 10.6886 33.6385 8.64218H33.6242C32.9126 7.98682 30.0528 5.90289 23.6635 5.87968C23.6635 5.87968 23.1894 5.84754 22.4269 5.86093V5.86182ZM22.5055 7.88057C23.1564 7.87611 23.5519 7.90379 23.5519 7.90379C28.9599 7.91807 31.5412 9.54575 32.1501 10.094C34.1358 11.7957 35.159 15.8743 34.4099 21.8689C33.6983 27.6814 29.4483 28.0493 28.6617 28.3002C28.3269 28.4073 25.2341 29.1698 21.3376 28.9189C21.3376 28.9189 18.4359 32.4207 17.5287 33.3225C17.385 33.4805 17.2171 33.527 17.11 33.5038C16.9564 33.4663 16.91 33.2761 16.9189 33.0154L16.9466 28.2306C11.2635 26.6591 11.5984 20.7297 11.6591 17.6323C11.7287 14.535 12.31 12.0011 14.0403 10.285C16.3698 8.17879 20.5555 7.89486 22.5037 7.88057H22.5055ZM22.9341 10.977C22.8873 10.9765 22.8409 10.9853 22.7975 11.0029C22.7542 11.0204 22.7147 11.0464 22.6814 11.0792C22.6481 11.1121 22.6217 11.1512 22.6036 11.1944C22.5855 11.2375 22.5761 11.2838 22.576 11.3306C22.576 11.5306 22.7385 11.6886 22.9341 11.6886C23.8193 11.6718 24.6992 11.8304 25.5229 12.1552C26.3465 12.4801 27.0977 12.9648 27.7332 13.5815C29.0305 14.8413 29.6626 16.5341 29.6867 18.7475C29.6867 18.9431 29.8448 19.1056 30.0448 19.1056V19.0913C30.139 19.0915 30.2296 19.0545 30.2966 18.9882C30.3637 18.922 30.4019 18.832 30.4028 18.7377C30.4462 17.6959 30.2772 16.6561 29.9062 15.6816C29.5352 14.7071 28.97 13.8182 28.2448 13.069C26.8314 11.6877 25.0403 10.9761 22.9341 10.9761V10.977ZM18.2278 11.7957C17.9751 11.7588 17.7173 11.8095 17.4975 11.9395H17.4787C16.9682 12.2387 16.5084 12.6169 16.1162 13.06C15.7903 13.4368 15.6135 13.8181 15.5671 14.185C15.5394 14.4038 15.5582 14.6225 15.6234 14.8315L15.6466 14.8457C16.0135 15.9243 16.493 16.9618 17.0787 17.9386C17.8332 19.3109 18.7617 20.58 19.8412 21.7145L19.8734 21.7609L19.9242 21.7984L19.9564 21.8359L19.9939 21.8681C21.1325 22.9507 22.4047 23.8836 23.7796 24.6439C25.351 25.4993 26.3046 25.9038 26.8769 26.0716V26.0806C27.0448 26.1314 27.1974 26.1547 27.351 26.1547C27.8388 26.1189 28.3005 25.9209 28.6626 25.5922C29.1037 25.1999 29.4777 24.7382 29.7698 24.2252V24.2163C30.0439 23.7002 29.951 23.2118 29.5555 22.8814C28.7634 22.189 27.9068 21.574 26.9974 21.0448C26.3885 20.7145 25.7698 20.9145 25.5189 21.2493L24.9841 21.9234C24.71 22.2582 24.2117 22.2118 24.2117 22.2118L24.1975 22.2207C20.4823 21.2716 19.4912 17.51 19.4912 17.51C19.4912 17.51 19.4448 16.9984 19.7885 16.7377L20.4582 16.1984C20.7787 15.9377 21.0019 15.3198 20.6582 14.71C20.1326 13.7995 19.519 12.9427 18.826 12.152C18.6745 11.9656 18.462 11.8388 18.226 11.794L18.2278 11.7957ZM23.5519 12.8565C23.0778 12.8565 23.0778 13.5725 23.5564 13.5725C24.1459 13.5821 24.7278 13.7077 25.2687 13.9423C25.8097 14.1768 26.2991 14.5157 26.7091 14.9395C27.083 15.352 27.3704 15.8354 27.5541 16.361C27.7378 16.8865 27.8142 17.4437 27.7787 17.9993C27.7803 18.0933 27.8187 18.183 27.8856 18.2491C27.9526 18.3152 28.0427 18.3524 28.1367 18.3529L28.151 18.3716C28.2458 18.3709 28.3364 18.333 28.4034 18.266C28.4704 18.199 28.5084 18.1083 28.5091 18.0136C28.5412 16.5948 28.1001 15.4047 27.2349 14.4511C26.3653 13.4975 25.1519 12.9627 23.6028 12.8565H23.5519ZM24.1385 14.7815C23.6501 14.7672 23.6314 15.4975 24.1153 15.5118C25.2921 15.5725 25.8635 16.1672 25.9385 17.3904C25.9402 17.4832 25.9781 17.5718 26.0442 17.637C26.1102 17.7023 26.1992 17.739 26.2921 17.7395H26.3064C26.3541 17.7374 26.401 17.7259 26.4442 17.7056C26.4875 17.6852 26.5262 17.6564 26.5582 17.6209C26.5902 17.5855 26.6148 17.5439 26.6306 17.4988C26.6464 17.4537 26.653 17.4059 26.6501 17.3582C26.5662 15.7636 25.6966 14.8654 24.1528 14.7824H24.1385V14.7815Z" fill="white"/>
</g>
<defs>
<filter id="filter0_d_3709_475" x="0.571289" y="0.857422" width="45.1426" height="45.1428" filterUnits="userSpaceOnUse" color-interpolation-filters="sRGB">
<feFlood flood-opacity="0" result="BackgroundImageFix"/>
<feColorMatrix in="SourceAlpha" type="matrix" values="0 0 0 0 0 0 0 0 0 0 0 0 0 0 0 0 0 0 127 0" result="hardAlpha"/>
<feOffset dy="4"/>
<feGaussianBlur stdDeviation="2"/>
<feColorMatrix type="matrix" values="0 0 0 0 0 0 0 0 0 0 0 0 0 0 0 0 0 0 0.17 0"/>
<feBlend mode="normal" in2="BackgroundImageFix" result="effect1_dropShadow_3709_475"/>
<feBlend mode="normal" in="SourceGraphic" in2="effect1_dropShadow_3709_475" result="shape"/>
</filter>
<clipPath id="clip0_3709_475">
<rect width="28.5714" height="28.5714" fill="white" transform="translate(8.85742 5.85742)"/>
</clipPath>
</defs>
</svg>
